<svg xmlns="http://www.w3.org/2000/svg" viewBox="0 0 1080 1080" width="1080" height="1080">
<defs>
  <linearGradient id="fireGrad" x1="0%" y1="0%" x2="100%" y2="100%">
    <stop offset="0%"  stop-color="#EAB308"/>
    <stop offset="45%" stop-color="#F97316"/>
    <stop offset="100%" stop-color="#EF4444"/>
  </linearGradient>
  <linearGradient id="redGrad" x1="0%" y1="0%" x2="100%" y2="100%">
    <stop offset="0%" stop-color="#EF4444"/>
    <stop offset="100%" stop-color="#DC2626"/>
  </linearGradient>
  <radialGradient id="glow" cx="50%" cy="50%" r="50%">
    <stop offset="0%" stop-color="#EF4444" stop-opacity="0.55"/>
    <stop offset="60%" stop-color="#EF4444" stop-opacity="0.12"/>
    <stop offset="100%" stop-color="#EF4444" stop-opacity="0"/>
  </radialGradient>
  <radialGradient id="fireGlow" cx="50%" cy="50%" r="50%">
    <stop offset="0%" stop-color="#F97316" stop-opacity="0.7"/>
    <stop offset="50%" stop-color="#EF4444" stop-opacity="0.25"/>
    <stop offset="100%" stop-color="#EF4444" stop-opacity="0"/>
  </radialGradient>
  <linearGradient id="bgFade" x1="0%" y1="0%" x2="0%" y2="100%">
    <stop offset="0%" stop-color="#141414"/>
    <stop offset="100%" stop-color="#0A0A0A"/>
  </linearGradient>
  <pattern id="dotGrid" x="0" y="0" width="40" height="40" patternUnits="userSpaceOnUse">
    <circle cx="2" cy="2" r="1" fill="#222222"/>
  </pattern>
  <filter id="softShadow" x="-20%" y="-20%" width="140%" height="140%">
    <feGaussianBlur in="SourceAlpha" stdDeviation="6"/>
    <feOffset dx="0" dy="4" result="off"/>
    <feComponentTransfer><feFuncA type="linear" slope="0.45"/></feComponentTransfer>
    <feMerge><feMergeNode/><feMergeNode in="SourceGraphic"/></feMerge>
  </filter>
</defs>
<rect width="1080" height="1080" fill="url(#bgFade)"/>
<rect width="1080" height="1080" fill="url(#dotGrid)" opacity="0.55"/>
<circle cx="-108.0" cy="-54.0" r="648.0" fill="url(#fireGlow)"/>
<circle cx="1134.0" cy="1134.0" r="594.0" fill="url(#fireGlow)"/><text x="540.0" y="470" font-family="Poppins, sans-serif" font-weight="700" letter-spacing="6" font-size="120" fill="#FFFFFF" text-anchor="middle">REPLAB</text><rect x="480.0" y="500" width="120" height="6" rx="3" fill="url(#redGrad)"/><text x="540.0" y="600" font-family="Poppins, sans-serif" font-weight="500" font-size="34" fill="#FFFFFF" text-anchor="middle" opacity="0.92">Strength &amp; Hypertrophy.</text><text x="540.0" y="650" font-family="Poppins, sans-serif" font-weight="500" font-size="34" fill="#FFFFFF" text-anchor="middle" opacity="0.92">Built for lifters.</text><rect x="160.0" y="792" width="760" height="16" rx="4" fill="#FFFFFF"/><rect x="148.0" y="750" width="24" height="100" rx="6" fill="#EF4444" stroke="#2A2A2A" stroke-width="2"/><rect x="198.0" y="730" width="24" height="140" rx="6" fill="#FFFFFF" stroke="#2A2A2A" stroke-width="2"/><rect x="253.0" y="710" width="24" height="180" rx="6" fill="#222222" stroke="#2A2A2A" stroke-width="2"/><rect x="896.0" y="750" width="24" height="100" rx="6" fill="#EF4444" stroke="#2A2A2A" stroke-width="2"/><rect x="846.0" y="730" width="24" height="140" rx="6" fill="#FFFFFF" stroke="#2A2A2A" stroke-width="2"/><rect x="791.0" y="710" width="24" height="180" rx="6" fill="#222222" stroke="#2A2A2A" stroke-width="2"/><rect x="430.0" y="280" width="220" height="44" rx="22.0" ry="22.0" fill="url(#redGrad)"/><text x="540.0" y="309.92" font-family="Poppins, sans-serif" font-weight="700" font-size="22" fill="#FFFFFF" text-anchor="middle" letter-spacing="2">WORKOUT TRACKER</text></svg>